<svg width="42" height="39" viewBox="0 0 42 39" fill="none" xmlns="http://www.w3.org/2000/svg">
<mask id="path-1-inside-1_2_348" fill="white">
<path d="M14.9848 3.96413C14.7584 3.96413 14.5194 3.91381 14.3055 3.97042C8.41858 5.46103 4.44991 9.07119 2.63225 14.8575C2.08507 16.5997 2.01588 18.4928 1.73915 20.3231C1.70141 20.5684 1.73915 20.8325 1.68883 21.0778C1.60078 21.5369 1.28001 21.6502 0.97183 21.3042C0.770567 21.0778 0.619619 20.7633 0.575593 20.4614C-0.273488 15.2034 1.41209 10.7568 5.03484 6.98308C8.02234 3.85721 11.8023 2.08357 15.9345 1.09613C18.2805 0.536361 20.7019 0.146413 23.1108 0.0206236C26.0669 -0.136613 28.9349 0.618124 31.6331 1.84457C35.5891 3.63708 38.0169 6.83842 39.6899 10.7316C41.149 14.1279 41.4635 17.6752 41.1302 21.2979C40.9981 22.7068 40.7654 24.1093 40.4572 25.493C39.9226 27.8956 38.671 29.9334 37.0735 31.7762C35.3816 33.726 33.4381 35.399 31.2997 36.8267C30.6267 37.2795 29.8406 37.5688 29.0795 37.877C28.7839 37.9965 28.4317 37.9651 28.1047 37.9965L27.9914 37.7827C28.2053 37.5877 28.4003 37.3676 28.633 37.1978C30.1299 36.0719 31.74 35.0719 33.1174 33.814C36.5829 30.6567 38.2433 26.5874 38.6458 21.9709C38.9352 18.5998 38.6018 15.2978 37.4257 12.1027C36.4634 9.49259 34.8973 7.35416 32.5639 5.79437C30.2494 4.25345 27.8908 2.80058 25.0543 2.4295C24.6266 2.37289 24.1863 2.33515 23.7523 2.34773C23.5825 2.34773 23.4127 2.51126 23.2429 2.59931C23.3561 2.78171 23.4316 3.05215 23.5888 3.12134C23.9159 3.266 24.2869 3.30373 24.6454 3.37292C25.3624 3.51129 26.1172 3.53015 26.7902 3.78173C30.4003 5.13397 33.457 7.19692 35.3942 10.6624C36.4005 12.4612 36.7967 14.4298 37.0043 16.4362C37.2873 19.1532 37.5263 21.8954 36.715 24.5496C34.5702 31.5561 29.9538 36.0908 22.8844 38.0657C18.3245 39.3425 13.7961 39.3613 9.38087 37.4242C6.69526 36.248 4.62602 34.3423 3.11654 31.858C2.73289 31.229 2.5442 30.4743 2.34294 29.751C2.28004 29.5246 2.4876 29.229 2.56936 28.9648C2.79578 29.0906 3.07881 29.1661 3.23604 29.3548C4.01594 30.2793 4.73923 31.2605 5.53171 32.1787C8.1041 35.1725 11.4878 36.6506 15.2993 37.2795C15.6326 37.3361 15.9911 37.355 16.3245 37.311C16.532 37.2858 16.727 37.1223 16.9282 37.0216C16.7521 36.9084 16.5949 36.7386 16.4062 36.6946C15.8527 36.5625 15.2804 36.4996 14.7206 36.3801C11.3369 35.6631 8.70789 33.6631 6.3116 31.3171C4.73294 29.7699 3.67002 27.8579 3.31152 25.7069C2.75175 22.3357 2.50017 18.8954 3.39328 15.5494C4.78326 10.3542 8.19216 6.92648 13.1797 5.00818C13.8087 4.76918 14.4125 4.48616 15.0351 4.222L14.9785 3.95155L14.9848 3.96413ZM28.199 14.3984C29.3877 14.3984 30.5827 14.4235 31.7714 14.3795C32.067 14.3669 32.4758 14.2097 32.6205 13.9833C32.9664 13.4612 32.4947 13.1594 32.1111 12.9895C30.6079 12.3291 29.1298 11.5492 27.5575 11.1216C26.1109 10.7316 25.3373 10.0649 25.1863 8.55545C25.092 7.64348 24.8844 7.57429 23.985 7.7504C22.4819 8.046 20.9975 8.49256 19.4818 8.63721C17.5572 8.81961 16.1987 9.60579 15.3559 11.3668C15.1672 11.7631 14.664 12.0587 14.2489 12.2851C12.3558 13.304 10.4375 14.2537 8.55066 15.2789C8.21103 15.4613 7.72045 15.9582 7.78334 16.1657C7.95945 16.7569 8.56324 16.4613 8.97205 16.3984C15.3559 15.4865 21.7271 14.4361 28.2053 14.3921L28.199 14.3984ZM23.6328 20.6942C23.8907 20.4174 23.9976 20.3042 24.1045 20.1973C24.658 19.6187 25.2429 19.0715 25.7524 18.4551C26.2115 17.8953 25.9977 17.3922 25.287 17.2727C25.0668 17.2349 24.8341 17.2601 24.6077 17.2915C23.8844 17.3922 23.1674 17.5305 22.4378 17.606C22.0856 17.6438 21.702 17.5746 21.6831 18.0651C21.6579 18.562 22.0102 18.7507 22.4315 18.7759C22.897 18.8073 23.3624 18.7822 23.8278 18.7822C23.2932 19.2287 22.7146 19.6753 22.1925 20.1721C21.8655 20.4803 21.5573 20.8388 21.3435 21.2288C21.0856 21.7005 21.3183 21.9646 21.8529 21.908C22.1925 21.8703 22.5322 21.82 22.8718 21.8074C24.0668 21.7571 25.3184 21.9772 26.331 21.0652C26.3751 21.0275 26.4631 21.0212 26.526 21.0338C27.3436 21.1847 27.9726 20.7696 28.633 20.3985C28.8468 20.279 29.155 20.3357 29.4192 20.3105C29.9286 20.2665 30.4443 20.2476 30.9475 20.1595C31.0859 20.1344 31.1865 19.9205 31.306 19.7948C31.1613 19.669 31.0293 19.4488 30.872 19.4363C30.1802 19.3608 30.1802 18.9897 30.3877 18.474C30.4821 18.2413 30.5953 17.9834 30.5576 17.7507C30.5324 17.562 30.3186 17.2538 30.1676 17.2412C28.0732 17.0777 25.6329 18.5935 25.7901 20.7004H23.6328V20.6942ZM18.8591 26.3358C19.0038 25.688 19.161 25.0716 19.2679 24.449C19.2994 24.254 19.1862 24.0339 19.1421 23.8263C18.9283 23.9207 18.6201 23.9521 18.5195 24.1093C18.1421 24.732 17.7899 25.3798 17.5006 26.0465C17.0855 27.0025 16.7333 27.2415 15.5446 27.1786C15.7899 26.3421 16.054 25.5245 16.2616 24.688C16.3119 24.4804 16.1735 24.2288 16.1232 24.0024C15.9094 24.0968 15.6137 24.1408 15.5005 24.3043C15.0288 25.0024 14.5382 25.7069 14.1923 26.4742C13.8527 27.2163 13.5382 27.8642 12.5948 27.8767C12.469 27.8767 12.3369 27.9648 12.2174 28.0403C11.7583 28.3296 11.7583 28.7258 12.23 28.99C12.4627 29.1158 12.7332 29.185 13.0162 29.2919C12.9407 29.6252 12.8464 29.9271 12.8023 30.2416C12.7395 30.6693 12.6577 31.1095 12.708 31.5309C12.7332 31.7762 12.9596 32.1599 13.1546 32.1976C13.4061 32.2479 13.7898 32.0907 13.9722 31.8894C14.2049 31.6316 14.3244 31.2542 14.4376 30.9146C14.6011 30.4177 14.6955 29.8957 14.8464 29.3925C14.903 29.2101 15.0037 28.9648 15.1483 28.9019C15.6389 28.6881 16.1609 28.5434 16.7459 28.3485C16.6955 28.7573 16.6326 29.0717 16.6264 29.3862C16.6201 29.8139 16.5635 30.3296 17.1169 30.4617C17.6767 30.6001 17.9786 30.1913 18.1232 29.7384C18.2931 29.2227 18.4126 28.6755 18.4818 28.1346C18.5446 27.6189 18.7208 27.2415 19.1988 26.9836C19.4 26.8767 19.5258 26.6251 19.8151 26.2918L18.8465 26.3484L18.8591 26.3358ZM10.4061 19.1721C9.9595 20.0841 9.45005 20.9835 9.07897 21.9395C8.69532 22.9143 8.43116 23.9332 8.15442 24.9458C8.05379 25.3106 8.0475 25.7194 8.06008 26.1031C8.06637 26.2729 8.21731 26.5622 8.33681 26.5811C8.51921 26.6063 8.80853 26.4993 8.90916 26.3547C9.19847 25.9207 9.44376 25.449 9.65132 24.971C10.0224 24.1219 10.3494 23.254 10.6891 22.4049C12.2489 22.7005 14.1357 21.6942 14.7144 20.3168C15.1295 19.3168 14.7961 18.2727 13.8653 17.6878C12.8778 17.0651 11.0476 17.172 10.1859 17.9582C9.98466 18.1406 9.85258 18.4928 9.84629 18.7759C9.84629 18.9142 10.2111 19.0526 10.4061 19.1847V19.1721ZM19.551 19.757C18.7962 20.474 18.161 21.0589 17.5446 21.669C17.2239 21.9898 16.8905 22.3231 16.6578 22.7068C16.532 22.9143 16.5257 23.3106 16.6452 23.5118C16.7333 23.6628 17.1232 23.6879 17.3685 23.6628C17.7081 23.6376 18.0289 23.4615 18.3685 23.4364C19.7334 23.3357 21.1108 23.3232 22.4693 23.1659C23.1297 23.0904 23.7712 22.8011 24.4002 22.5558C24.5259 22.5055 24.5574 22.2288 24.6329 22.059C24.4693 22.0338 24.3121 21.9772 24.1486 21.9772C22.551 22.0087 20.9535 22.0527 19.356 22.0904L19.3057 21.8829C19.5698 21.6061 19.8466 21.3357 20.0981 21.0464C20.5321 20.5495 20.985 20.0589 21.356 19.518C21.5007 19.3105 21.5699 18.8954 21.4504 18.713C21.3372 18.5369 20.9409 18.4677 20.6768 18.4865C19.79 18.5369 18.8969 18.6123 18.0163 18.7444C17.7836 18.7759 17.5824 19.0274 17.3622 19.1784C17.5572 19.3671 17.727 19.6815 17.9471 19.7256C18.4063 19.8136 18.8969 19.7507 19.5384 19.7507L19.551 19.757ZM24.9536 29.3233L25.18 29.3799C25.3058 29.1598 25.4694 28.9522 25.5511 28.7132C25.8404 27.9459 26.1612 27.1786 26.3499 26.3861C26.5889 25.3672 27.1487 24.7823 28.1738 24.5433C28.721 24.4112 29.2368 24.1282 29.7525 23.8955C29.9412 23.8074 30.111 23.6691 30.2871 23.5496L30.2053 23.2666L27.4694 23.7571C27.5638 23.5056 27.6958 23.3169 27.6958 23.1282C27.6958 22.8829 27.6015 22.6376 27.5512 22.3923C27.3185 22.4804 27.0229 22.5055 26.8719 22.6628C26.57 22.9961 26.3751 23.4301 26.0732 23.7697C25.9033 23.9647 25.6329 24.1219 25.375 24.1911C24.9662 24.3043 24.3058 24.0087 24.2492 24.6188C24.224 24.8955 24.7964 25.2289 25.1926 25.6314C24.9222 26.7132 24.4064 27.9962 24.9473 29.317L24.9536 29.3233ZM21.4252 27.2352L21.2114 27.0906C21.1108 26.4805 21.5321 25.6754 20.6768 25.361C20.3938 25.254 19.9975 25.4553 19.6579 25.5119L19.8277 25.7069C19.8277 26.0276 19.8529 26.3547 19.8214 26.6692C19.79 26.9145 19.6076 27.1535 19.6264 27.3862C19.6516 27.795 19.6516 28.3736 19.8969 28.5497C20.1862 28.751 20.79 28.7258 21.1422 28.5623C21.6579 28.317 22.073 27.8642 22.4944 27.5245C22.7649 27.8264 23.0165 28.1849 23.3435 28.4365C23.6203 28.6504 23.9096 28.6126 23.9347 28.1409C23.9788 27.2541 24.0605 26.3673 24.0794 25.4867C24.0794 25.2289 23.9284 24.9647 23.8467 24.7068C23.6203 24.8641 23.3498 24.9836 23.1737 25.1848C22.5762 25.8515 22.0039 26.5497 21.4252 27.2352ZM17.1106 19.6249L16.6704 18.8136C16.4628 18.9834 16.2175 19.1344 16.0477 19.3356C15.7458 19.7067 15.4502 20.0904 15.2301 20.5118C14.9408 21.0715 14.6263 21.6502 14.5068 22.2539C14.4313 22.6439 14.6137 23.1471 14.8339 23.5056C15.0666 23.8829 15.5068 23.7446 15.6704 23.3357C15.9219 22.7068 16.205 22.0904 16.4502 21.4552C16.683 20.864 16.8779 20.2665 17.1106 19.6187V19.6249ZM16.1672 17.9079C16.2112 17.9771 16.2804 18.2413 16.4188 18.2853C16.6264 18.3545 16.9911 18.3545 17.0981 18.2287C17.6453 17.5683 18.1421 16.8701 18.6264 16.1594C18.6641 16.1028 18.488 15.7758 18.3811 15.7632C17.6138 15.6563 16.1546 17.0085 16.1672 17.9079Z"/>
</mask>
<path d="M14.9848 3.96413C14.7584 3.96413 14.5194 3.91381 14.3055 3.97042C8.41858 5.46103 4.44991 9.07119 2.63225 14.8575C2.08507 16.5997 2.01588 18.4928 1.73915 20.3231C1.70141 20.5684 1.73915 20.8325 1.68883 21.0778C1.60078 21.5369 1.28001 21.6502 0.97183 21.3042C0.770567 21.0778 0.619619 20.7633 0.575593 20.4614C-0.273488 15.2034 1.41209 10.7568 5.03484 6.98308C8.02234 3.85721 11.8023 2.08357 15.9345 1.09613C18.2805 0.536361 20.7019 0.146413 23.1108 0.0206236C26.0669 -0.136613 28.9349 0.618124 31.6331 1.84457C35.5891 3.63708 38.0169 6.83842 39.6899 10.7316C41.149 14.1279 41.4635 17.6752 41.1302 21.2979C40.9981 22.7068 40.7654 24.1093 40.4572 25.493C39.9226 27.8956 38.671 29.9334 37.0735 31.7762C35.3816 33.726 33.4381 35.399 31.2997 36.8267C30.6267 37.2795 29.8406 37.5688 29.0795 37.877C28.7839 37.9965 28.4317 37.9651 28.1047 37.9965L27.9914 37.7827C28.2053 37.5877 28.4003 37.3676 28.633 37.1978C30.1299 36.0719 31.74 35.0719 33.1174 33.814C36.5829 30.6567 38.2433 26.5874 38.6458 21.9709C38.9352 18.5998 38.6018 15.2978 37.4257 12.1027C36.4634 9.49259 34.8973 7.35416 32.5639 5.79437C30.2494 4.25345 27.8908 2.80058 25.0543 2.4295C24.6266 2.37289 24.1863 2.33515 23.7523 2.34773C23.5825 2.34773 23.4127 2.51126 23.2429 2.59931C23.3561 2.78171 23.4316 3.05215 23.5888 3.12134C23.9159 3.266 24.2869 3.30373 24.6454 3.37292C25.3624 3.51129 26.1172 3.53015 26.7902 3.78173C30.4003 5.13397 33.457 7.19692 35.3942 10.6624C36.4005 12.4612 36.7967 14.4298 37.0043 16.4362C37.2873 19.1532 37.5263 21.8954 36.715 24.5496C34.5702 31.5561 29.9538 36.0908 22.8844 38.0657C18.3245 39.3425 13.7961 39.3613 9.38087 37.4242C6.69526 36.248 4.62602 34.3423 3.11654 31.858C2.73289 31.229 2.5442 30.4743 2.34294 29.751C2.28004 29.5246 2.4876 29.229 2.56936 28.9648C2.79578 29.0906 3.07881 29.1661 3.23604 29.3548C4.01594 30.2793 4.73923 31.2605 5.53171 32.1787C8.1041 35.1725 11.4878 36.6506 15.2993 37.2795C15.6326 37.3361 15.9911 37.355 16.3245 37.311C16.532 37.2858 16.727 37.1223 16.9282 37.0216C16.7521 36.9084 16.5949 36.7386 16.4062 36.6946C15.8527 36.5625 15.2804 36.4996 14.7206 36.3801C11.3369 35.6631 8.70789 33.6631 6.3116 31.3171C4.73294 29.7699 3.67002 27.8579 3.31152 25.7069C2.75175 22.3357 2.50017 18.8954 3.39328 15.5494C4.78326 10.3542 8.19216 6.92648 13.1797 5.00818C13.8087 4.76918 14.4125 4.48616 15.0351 4.222L14.9785 3.95155L14.9848 3.96413ZM28.199 14.3984C29.3877 14.3984 30.5827 14.4235 31.7714 14.3795C32.067 14.3669 32.4758 14.2097 32.6205 13.9833C32.9664 13.4612 32.4947 13.1594 32.1111 12.9895C30.6079 12.3291 29.1298 11.5492 27.5575 11.1216C26.1109 10.7316 25.3373 10.0649 25.1863 8.55545C25.092 7.64348 24.8844 7.57429 23.985 7.7504C22.4819 8.046 20.9975 8.49256 19.4818 8.63721C17.5572 8.81961 16.1987 9.60579 15.3559 11.3668C15.1672 11.7631 14.664 12.0587 14.2489 12.2851C12.3558 13.304 10.4375 14.2537 8.55066 15.2789C8.21103 15.4613 7.72045 15.9582 7.78334 16.1657C7.95945 16.7569 8.56324 16.4613 8.97205 16.3984C15.3559 15.4865 21.7271 14.4361 28.2053 14.3921L28.199 14.3984ZM23.6328 20.6942C23.8907 20.4174 23.9976 20.3042 24.1045 20.1973C24.658 19.6187 25.2429 19.0715 25.7524 18.4551C26.2115 17.8953 25.9977 17.3922 25.287 17.2727C25.0668 17.2349 24.8341 17.2601 24.6077 17.2915C23.8844 17.3922 23.1674 17.5305 22.4378 17.606C22.0856 17.6438 21.702 17.5746 21.6831 18.0651C21.6579 18.562 22.0102 18.7507 22.4315 18.7759C22.897 18.8073 23.3624 18.7822 23.8278 18.7822C23.2932 19.2287 22.7146 19.6753 22.1925 20.1721C21.8655 20.4803 21.5573 20.8388 21.3435 21.2288C21.0856 21.7005 21.3183 21.9646 21.8529 21.908C22.1925 21.8703 22.5322 21.82 22.8718 21.8074C24.0668 21.7571 25.3184 21.9772 26.331 21.0652C26.3751 21.0275 26.4631 21.0212 26.526 21.0338C27.3436 21.1847 27.9726 20.7696 28.633 20.3985C28.8468 20.279 29.155 20.3357 29.4192 20.3105C29.9286 20.2665 30.4443 20.2476 30.9475 20.1595C31.0859 20.1344 31.1865 19.9205 31.306 19.7948C31.1613 19.669 31.0293 19.4488 30.872 19.4363C30.1802 19.3608 30.1802 18.9897 30.3877 18.474C30.4821 18.2413 30.5953 17.9834 30.5576 17.7507C30.5324 17.562 30.3186 17.2538 30.1676 17.2412C28.0732 17.0777 25.6329 18.5935 25.7901 20.7004H23.6328V20.6942ZM18.8591 26.3358C19.0038 25.688 19.161 25.0716 19.2679 24.449C19.2994 24.254 19.1862 24.0339 19.1421 23.8263C18.9283 23.9207 18.6201 23.9521 18.5195 24.1093C18.1421 24.732 17.7899 25.3798 17.5006 26.0465C17.0855 27.0025 16.7333 27.2415 15.5446 27.1786C15.7899 26.3421 16.054 25.5245 16.2616 24.688C16.3119 24.4804 16.1735 24.2288 16.1232 24.0024C15.9094 24.0968 15.6137 24.1408 15.5005 24.3043C15.0288 25.0024 14.5382 25.7069 14.1923 26.4742C13.8527 27.2163 13.5382 27.8642 12.5948 27.8767C12.469 27.8767 12.3369 27.9648 12.2174 28.0403C11.7583 28.3296 11.7583 28.7258 12.23 28.99C12.4627 29.1158 12.7332 29.185 13.0162 29.2919C12.9407 29.6252 12.8464 29.9271 12.8023 30.2416C12.7395 30.6693 12.6577 31.1095 12.708 31.5309C12.7332 31.7762 12.9596 32.1599 13.1546 32.1976C13.4061 32.2479 13.7898 32.0907 13.9722 31.8894C14.2049 31.6316 14.3244 31.2542 14.4376 30.9146C14.6011 30.4177 14.6955 29.8957 14.8464 29.3925C14.903 29.2101 15.0037 28.9648 15.1483 28.9019C15.6389 28.6881 16.1609 28.5434 16.7459 28.3485C16.6955 28.7573 16.6326 29.0717 16.6264 29.3862C16.6201 29.8139 16.5635 30.3296 17.1169 30.4617C17.6767 30.6001 17.9786 30.1913 18.1232 29.7384C18.2931 29.2227 18.4126 28.6755 18.4818 28.1346C18.5446 27.6189 18.7208 27.2415 19.1988 26.9836C19.4 26.8767 19.5258 26.6251 19.8151 26.2918L18.8465 26.3484L18.8591 26.3358ZM10.4061 19.1721C9.9595 20.0841 9.45005 20.9835 9.07897 21.9395C8.69532 22.9143 8.43116 23.9332 8.15442 24.9458C8.05379 25.3106 8.0475 25.7194 8.06008 26.1031C8.06637 26.2729 8.21731 26.5622 8.33681 26.5811C8.51921 26.6063 8.80853 26.4993 8.90916 26.3547C9.19847 25.9207 9.44376 25.449 9.65132 24.971C10.0224 24.1219 10.3494 23.254 10.6891 22.4049C12.2489 22.7005 14.1357 21.6942 14.7144 20.3168C15.1295 19.3168 14.7961 18.2727 13.8653 17.6878C12.8778 17.0651 11.0476 17.172 10.1859 17.9582C9.98466 18.1406 9.85258 18.4928 9.84629 18.7759C9.84629 18.9142 10.2111 19.0526 10.4061 19.1847V19.1721ZM19.551 19.757C18.7962 20.474 18.161 21.0589 17.5446 21.669C17.2239 21.9898 16.8905 22.3231 16.6578 22.7068C16.532 22.9143 16.5257 23.3106 16.6452 23.5118C16.7333 23.6628 17.1232 23.6879 17.3685 23.6628C17.7081 23.6376 18.0289 23.4615 18.3685 23.4364C19.7334 23.3357 21.1108 23.3232 22.4693 23.1659C23.1297 23.0904 23.7712 22.8011 24.4002 22.5558C24.5259 22.5055 24.5574 22.2288 24.6329 22.059C24.4693 22.0338 24.3121 21.9772 24.1486 21.9772C22.551 22.0087 20.9535 22.0527 19.356 22.0904L19.3057 21.8829C19.5698 21.6061 19.8466 21.3357 20.0981 21.0464C20.5321 20.5495 20.985 20.0589 21.356 19.518C21.5007 19.3105 21.5699 18.8954 21.4504 18.713C21.3372 18.5369 20.9409 18.4677 20.6768 18.4865C19.79 18.5369 18.8969 18.6123 18.0163 18.7444C17.7836 18.7759 17.5824 19.0274 17.3622 19.1784C17.5572 19.3671 17.727 19.6815 17.9471 19.7256C18.4063 19.8136 18.8969 19.7507 19.5384 19.7507L19.551 19.757ZM24.9536 29.3233L25.18 29.3799C25.3058 29.1598 25.4694 28.9522 25.5511 28.7132C25.8404 27.9459 26.1612 27.1786 26.3499 26.3861C26.5889 25.3672 27.1487 24.7823 28.1738 24.5433C28.721 24.4112 29.2368 24.1282 29.7525 23.8955C29.9412 23.8074 30.111 23.6691 30.2871 23.5496L30.2053 23.2666L27.4694 23.7571C27.5638 23.5056 27.6958 23.3169 27.6958 23.1282C27.6958 22.8829 27.6015 22.6376 27.5512 22.3923C27.3185 22.4804 27.0229 22.5055 26.8719 22.6628C26.57 22.9961 26.3751 23.4301 26.0732 23.7697C25.9033 23.9647 25.6329 24.1219 25.375 24.1911C24.9662 24.3043 24.3058 24.0087 24.2492 24.6188C24.224 24.8955 24.7964 25.2289 25.1926 25.6314C24.9222 26.7132 24.4064 27.9962 24.9473 29.317L24.9536 29.3233ZM21.4252 27.2352L21.2114 27.0906C21.1108 26.4805 21.5321 25.6754 20.6768 25.361C20.3938 25.254 19.9975 25.4553 19.6579 25.5119L19.8277 25.7069C19.8277 26.0276 19.8529 26.3547 19.8214 26.6692C19.79 26.9145 19.6076 27.1535 19.6264 27.3862C19.6516 27.795 19.6516 28.3736 19.8969 28.5497C20.1862 28.751 20.79 28.7258 21.1422 28.5623C21.6579 28.317 22.073 27.8642 22.4944 27.5245C22.7649 27.8264 23.0165 28.1849 23.3435 28.4365C23.6203 28.6504 23.9096 28.6126 23.9347 28.1409C23.9788 27.2541 24.0605 26.3673 24.0794 25.4867C24.0794 25.2289 23.9284 24.9647 23.8467 24.7068C23.6203 24.8641 23.3498 24.9836 23.1737 25.1848C22.5762 25.8515 22.0039 26.5497 21.4252 27.2352ZM17.1106 19.6249L16.6704 18.8136C16.4628 18.9834 16.2175 19.1344 16.0477 19.3356C15.7458 19.7067 15.4502 20.0904 15.2301 20.5118C14.9408 21.0715 14.6263 21.6502 14.5068 22.2539C14.4313 22.6439 14.6137 23.1471 14.8339 23.5056C15.0666 23.8829 15.5068 23.7446 15.6704 23.3357C15.9219 22.7068 16.205 22.0904 16.4502 21.4552C16.683 20.864 16.8779 20.2665 17.1106 19.6187V19.6249ZM16.1672 17.9079C16.2112 17.9771 16.2804 18.2413 16.4188 18.2853C16.6264 18.3545 16.9911 18.3545 17.0981 18.2287C17.6453 17.5683 18.1421 16.8701 18.6264 16.1594C18.6641 16.1028 18.488 15.7758 18.3811 15.7632C17.6138 15.6563 16.1546 17.0085 16.1672 17.9079Z" stroke="white" stroke-width="2" stroke-miterlimit="10" stroke-linejoin="round" mask="url(#path-1-inside-1_2_348)"/>
</svg>
